<svg xmlns="http://www.w3.org/2000/svg"
shape-rendering="geometricPrecision"
width="4000" height="4000" viewBox="0 0 480 480"><rect width="100%" height="100%" fill="#FFFFFF" />
  <metadata>null</metadata>

<path d="
M 21.592 67.151
C 31.378 66.861 41.218 67.058 51.011 67.072
C 57.234 67.081 63.588 66.72 69.795 67.153
C 70.297 70.974 69.855 75.15 69.87 79.009
C 69.901 87.01 69.888 95.011 69.896 103.012
C 69.918 125.679 69.897 148.345 69.902 171.012
C 69.905 181.958 69.22 193.122 69.887 204.043
C 71.612 203.166 73.32 200.501 74.648 199.06
C 78.015 195.404 81.352 191.718 84.72 188.064
C 96.229 175.578 107.47 162.85 118.884 150.278
C 122.579 146.207 126.186 142.055 129.893 137.994
C 131.513 136.218 133.11 133.856 135.079 132.482
C 138.802 132.027 142.753 132.317 146.503 132.302
C 154.169 132.27 161.836 132.325 169.502 132.32
C 175.004 132.316 180.505 132.294 186.006 132.325
C 188.543 132.339 191.408 131.937 193.904 132.365
C 193.53 133.25 192.585 133.763 191.979 134.498
C 190.27 136.569 188.383 138.492 186.662 140.557
C 180.093 148.442 173.056 155.927 166.286 163.635
C 144.235 188.74 121.318 213.076 99.131 238.066
C 92.281 245.78 84.975 253.085 78.174 260.834
C 75.709 263.643 71.742 266.492 70.13 269.876
C 70.094 275.415 70.104 280.958 70.109 286.498
C 70.112 289.149 69.805 292.052 70.179 294.672
C 66.511 294.37 62.683 294.678 58.999 294.682
C 51.166 294.692 43.332 294.693 35.498 294.706
C 32.433 294.711 29.368 294.714 26.303 294.728
C 24.866 294.734 23.087 294.978 21.703 294.598
C 21.211 218.787 22.132 142.962 21.592 67.151 Z"
opacity="1" fill="rgb(21,43,102)" fill-rule="evenodd" />
<path d="
M 21.762 306.29
C 37.882 306.723 54.058 306.222 70.185 306.29
C 70.644 308.873 70.252 311.875 70.25 314.503
C 70.247 317.575 70.663 320.982 70.178 324.012
C 59.629 323.955 49.064 323.956 38.508 323.934
C 33.037 323.922 27.252 323.405 21.819 324.057
C 21.194 322.515 21.692 320.169 21.701 318.506
C 21.723 314.434 21.706 310.359 21.762 306.29 Z"
opacity="1" fill="rgb(8,14,58)" fill-rule="evenodd" />
<path d="
M 28.021 381.605
C 28.059 381.057 28.043 381.436 27.991 380.467
C 29.292 380.558 30.661 380.611 31.968 380.56
C 32.349 386.767 32.606 393.357 32.026 399.554
C 33.874 398.647 35.586 396.011 36.966 394.481
C 39.825 391.312 42.992 388.393 45.922 385.285
C 47.103 384.033 48.417 381.849 49.939 381.041
C 51.274 380.333 53.777 380.423 55.195 380.755
C 55.289 381.449 52.524 383.583 51.97 384.163
C 48.475 387.829 45.078 391.672 41.316 395.057
C 41.912 396.913 44.442 398.985 45.69 400.505
C 49.4 405.022 53.156 409.521 56.983 413.923
C 56.069 414.172 52.702 414.244 51.84 413.794
C 50.822 413.264 49.718 411.321 48.964 410.43
C 46.735 407.8 44.563 405.13 42.403 402.442
C 41.604 401.447 39.764 398.405 38.537 398.169
C 36.653 400.639 34.153 402.7 32.179 405.115
C 31.703 406.025 31.868 407.063 31.872 408.067
C 31.879 409.938 31.567 412.015 31.872 413.856
C 30.572 413.782 29.323 413.734 28.022 413.821
C 27.678 413.309 27.913 411.831 27.927 411.227
C 27.969 409.315 28.06 407.398 28.047 405.486
C 27.993 397.55 27.909 389.543 28.021 381.605 Z"
opacity="1" fill="rgb(6,7,5)" fill-rule="evenodd" />
<path d="
M 62.995 381.604
C 62.983 381.381 62.97 381.158 62.958 380.935
C 65.334 380.402 68.078 380.765 70.513 380.769
C 75.598 380.776 80.73 380.939 85.807 380.705
C 86.266 381.668 86.007 383.406 85.939 384.46
C 81.653 384.289 77.308 384.465 73.016 384.48
C 71.306 384.486 68.834 383.967 67.324 384.836
C 67.212 387.216 67.274 389.606 67.228 391.988
C 67.21 392.912 66.958 394.165 67.334 395.002
C 69.969 394.612 72.844 394.861 75.508 394.854
C 78.317 394.847 81.222 394.593 84.019 394.824
C 83.987 395.328 84.343 398.448 84.034 398.712
C 78.459 398.568 72.868 398.793 67.296 398.7
C 67.304 401.209 67.283 403.716 67.283 406.225
C 67.282 407.34 67.056 408.897 67.489 409.928
C 72.166 409.218 77.282 409.858 82.012 409.815
C 82.987 409.806 86.451 409.257 87.043 409.881
C 87.07 410.812 87.326 412.878 86.88 413.635
C 81.369 413.55 75.839 413.491 70.327 413.506
C 67.933 413.513 65.452 413.799 63.074 413.587
C 62.844 407.071 63.057 400.514 63.068 393.994
C 63.075 389.899 62.753 385.683 62.995 381.604 Z"
opacity="1" fill="rgb(4,5,3)" fill-rule="evenodd" />
<path d="
M 96.261 257.512
C 106.668 245.635 117.456 234.048 128.095 222.379
C 128.546 222.556 129.087 223.596 129.371 224.023
C 130.324 225.453 131.404 226.823 132.447 228.189
C 136.367 233.329 140.417 238.374 144.334 243.518
C 158.972 262.743 173.939 281.735 188.724 300.845
C 193.133 306.544 197.407 312.348 201.847 318.019
C 203.108 319.63 204.471 321.17 205.689 322.813
C 205.919 323.123 206.82 323.878 206.842 324.224
C 201.611 323.733 196.259 323.942 191.008 323.935
C 182.009 323.923 173.009 323.969 164.01 323.972
C 160.449 323.974 156.869 323.861 153.31 323.985
C 151.439 324.05 148.621 324.504 146.846 323.926
C 136.733 310.015 125.911 296.586 115.494 282.903
C 109.208 274.646 103.147 265.708 96.151 258.057
C 96.188 257.875 96.224 257.694 96.261 257.512 Z"
opacity="1" fill="rgb(8,19,63)" fill-rule="evenodd" />
<path d="
M 97.055 380.648
C 98.371 380.527 99.906 380.371 101.198 380.675
C 100.587 390.433 101.828 400.312 101.297 410.066
C 105.68 410.159 110.122 409.955 114.513 409.924
C 115.477 409.917 118.753 409.349 119.365 409.966
C 119.342 410.799 119.808 413.007 119.328 413.638
C 111.97 413.595 104.536 413.884 97.185 413.618
C 96.334 402.754 97.135 391.549 97.055 380.648 Z"
opacity="1" fill="rgb(5,7,5)" fill-rule="evenodd" />
<path d="
M 127.035 380.625
C 128.449 380.508 129.863 380.512 131.279 380.583
C 130.643 390.351 132.037 400.269 131.351 410.021
C 137.441 409.922 143.583 409.839 149.689 409.886
C 149.844 410.932 149.258 412.824 149.707 413.685
C 147.269 413.241 144.421 413.537 141.934 413.562
C 137.102 413.611 132.023 413.986 127.213 413.631
C 126.752 402.646 127.491 391.611 127.035 380.625 Z"
opacity="1" fill="rgb(6,7,5)" fill-rule="evenodd" />
<path d="
M 148.553 380.699
C 149.974 380.649 151.43 380.641 152.84 380.541
C 154.152 381.701 154.997 384.226 155.932 385.756
C 158.499 389.958 161.306 394.101 163.628 398.429
C 164.939 397.656 165.855 394.878 166.66 393.58
C 169.289 389.336 171.869 385.032 174.347 380.712
C 174.904 380.699 178.249 380.263 178.364 380.875
C 175.359 385.248 173.008 390.118 170.224 394.637
C 168.837 396.887 166.372 399.566 165.735 402.144
C 165.238 404.156 165.615 406.641 165.659 408.7
C 165.694 410.319 165.472 412.202 165.793 413.775
C 164.413 413.659 162.947 413.681 161.561 413.715
C 161.548 410.165 162.502 405.34 161.337 401.973
C 160.54 399.671 158.605 397.444 157.322 395.376
C 154.368 390.615 150.891 385.79 148.553 380.699 Z"
opacity="1" fill="rgb(4,5,4)" fill-rule="evenodd" />
<path d="
M 202.411 176.76
C 202.613 176.428 202.2 176.041 202.077 175.674
C 201.675 174.476 201.171 173.318 200.78 172.114
C 199.424 167.948 197.643 163.772 195.915 159.745
C 195.547 158.886 195.021 156.138 194.309 155.761
C 192.29 159.413 189.113 162.595 186.441 165.794
C 182.413 170.615 178.537 175.592 174.368 180.292
C 172.328 182.591 170.49 185.083 168.374 187.314
C 167.647 188.08 165.894 189.055 165.686 190.122
C 166.023 190.799 166.455 191.248 166.937 191.797
C 166.361 191.963 164.948 192.992 164.469 192.585
C 164.109 190.787 162.97 188.795 161.919 187.315
C 162.88 185.543 164.687 184.079 166.021 182.568
C 168.743 179.486 171.423 176.358 174.1 173.237
C 178.858 167.69 183.549 162.087 188.329 156.557
C 190.517 154.025 192.499 151.202 195.016 148.984
C 197.15 155.29 200.33 161.36 202.996 167.465
C 204.042 169.861 205.786 172.76 206.249 175.318
C 204.962 175.762 203.716 176.375 202.411 176.76 Z"
opacity="1" fill="rgb(31,93,142)" fill-rule="evenodd" />
<path d="
M 202.411 176.76
C 193.813 179.86 185.434 183.808 177.065 187.467
C 173.765 188.909 170.391 190.782 166.937 191.797
C 166.455 191.248 166.023 190.799 165.686 190.122
C 165.894 189.055 167.647 188.08 168.374 187.314
C 170.49 185.083 172.328 182.591 174.368 180.292
C 178.537 175.592 182.413 170.615 186.441 165.794
C 189.113 162.595 192.29 159.413 194.309 155.761
C 195.021 156.138 195.547 158.886 195.915 159.745
C 197.643 163.772 199.424 167.948 200.78 172.114
C 201.171 173.318 201.675 174.476 202.077 175.674
C 202.2 176.041 202.613 176.428 202.411 176.76 Z"
opacity="1" fill="rgb(51,130,181)" fill-rule="evenodd" />
<path d="
M 196.005 67.738
C 194.561 68.747 193.184 68.806 191.534 69.36
C 188.433 70.4 185.174 72.001 182.867 74.36
C 176.429 80.943 178.461 90.08 177.507 98.344
C 177.242 100.639 177.267 102.951 177.155 105.256
C 177.103 106.348 176.863 107.897 177.243 108.949
C 177.477 109.597 178.18 109.851 178.505 110.437
C 177.281 110.45 175.309 110.835 174.189 110.349
C 173.621 106.825 174.101 103.077 174.054 99.511
C 173.928 90.042 171.43 76.655 180.495 70.443
C 185.155 67.251 190.623 67.68 196.005 67.738 Z"
opacity="1" fill="rgb(140,142,141)" fill-rule="evenodd" />
<path d="
M 175.292 201.917
C 175.433 201.971 175.574 202.024 175.715 202.077
C 176.109 204.088 176.861 205.94 177.042 207.997
C 176.99 209.259 176.884 210.52 176.898 211.781
C 177.811 212.803 178.511 209.835 178.649 209.359
C 180.07 207.661 184.154 210.556 185.872 211.179
C 191.352 213.17 196.704 215.652 202.087 217.896
C 203.784 218.604 206.457 220.421 208.343 219.5
C 208.359 222.093 208.5 224.676 208.73 227.25
C 204.507 226.414 200.336 223.765 196.391 222.088
C 189.2 219.03 181.55 216.545 174.683 212.797
C 174.22 212.015 174.622 210.863 174.655 209.98
C 174.739 207.751 174.176 203.875 175.292 201.917 Z"
opacity="1" fill="rgb(98,98,97)" fill-rule="evenodd" />
<path d="
M 184.991 204.949
C 184.116 203.519 182.713 204.782 181.48 203.495
C 180.465 202.082 175.821 198.269 175.715 202.077
C 175.574 202.024 175.433 201.971 175.292 201.917
C 175.188 201.205 175.118 200.534 175.115 199.811
C 176.793 198.571 179.1 197.91 181.009 197.081
C 184.416 195.602 187.831 194.081 191.192 192.502
C 194.686 190.86 198.18 189.222 201.734 187.715
C 203.605 186.923 205.44 185.956 207.486 185.73
C 207.184 189.264 207.862 192.897 207.431 196.423
C 203.929 198.441 199.502 199.597 195.719 201.05
C 192.235 202.388 188.719 204.394 184.991 204.949 Z"
opacity="1" fill="rgb(112,114,114)" fill-rule="evenodd" />
<path d="
M 196.005 67.738
C 219.985 67.24 244.007 67.483 267.991 67.577
C 268.532 68.275 267.805 69.88 268.467 70.853
C 268.785 71.321 269.325 71.253 269.72 71.598
C 270.43 72.217 270.853 73.783 271.827 74.02
C 272.463 74.174 273.093 73.822 273.721 74.104
C 275.464 74.885 276.745 76.545 278.476 77.345
C 279.053 77.612 279.667 77.314 280.232 77.604
C 280.836 77.914 281.166 78.817 281.852 78.971
C 284.42 79.544 284.942 74.508 287.859 76.102
C 300.317 82.906 312.878 89.371 325.596 95.668
C 330.988 98.338 336.563 101.781 342.126 104.55
C 344.718 105.84 345.662 103.753 347.916 102.912
C 349.044 102.491 350.229 103.055 351.378 103.031
C 352.016 103.017 352.284 102.546 352.853 102.492
C 354.381 102.347 355.508 104.081 356.443 105.002
C 357.276 105.822 358.481 105.861 359.265 106.592
C 359.54 106.849 359.499 107.246 359.711 107.534
C 360.435 108.514 361.687 109.172 362.483 110.222
C 345.018 110.793 327.471 110.269 309.997 110.299
C 266.17 110.374 222.33 110.019 178.505 110.437
C 178.18 109.851 177.477 109.597 177.243 108.949
C 176.863 107.897 177.103 106.348 177.155 105.256
C 177.267 102.951 177.242 100.639 177.507 98.344
C 178.461 90.08 176.429 80.943 182.867 74.36
C 185.174 72.001 188.433 70.4 191.534 69.36
C 193.184 68.806 194.561 68.747 196.005 67.738 Z
M 185.893 89.599
C 184.847 98.804 197.706 103.052 202.226 94.949
C 202.778 93.959 203.164 92.931 203.303 91.802
C 203.464 90.509 203.332 89.181 202.919 87.946
C 200.11 79.558 186.916 80.593 185.893 89.599 Z
M 212.443 89.603
C 211.353 98.9 224.232 103.035 228.978 95.124
C 229.564 94.148 229.984 93.099 230.121 91.964
C 231.243 82.664 218.648 78.532 213.662 86.268
C 213 87.294 212.586 88.383 212.443 89.603 Z
M 238.926 89.083
C 236.603 99.672 253.623 103.921 256.188 93.126
C 258.33 84.111 246.603 77.648 240.724 85.29
C 239.861 86.412 239.231 87.693 238.926 89.083 Z"
opacity="1" fill="rgb(147,147,148)" fill-rule="evenodd" />
<path d="
M 183.427 205.95
C 185.038 207.195 187.041 207.799 188.888 208.606
C 192.746 210.291 196.639 211.968 200.565 213.493
C 203.17 214.506 206.119 215.479 208.416 217.093
C 208.557 217.872 208.355 218.71 208.343 219.5
C 206.457 220.421 203.784 218.604 202.087 217.896
C 196.704 215.652 191.352 213.17 185.872 211.179
C 184.154 210.556 180.07 207.661 178.649 209.359
C 178.779 208.719 178.797 208.101 178.81 207.449
C 178.85 206.647 178.865 205.806 179.153 205.054
C 180.449 204.476 182.163 205.594 183.427 205.95 Z"
opacity="1" fill="rgb(171,169,169)" fill-rule="evenodd" />
<path d="
M 235.528 257.523
C 235.324 257.881 232.83 256.219 232.348 256.058
C 230.003 255.273 227.531 254.913 225.169 254.189
C 215.698 251.288 205.943 249.189 196.397 246.543
C 194.055 245.894 191.676 245.381 189.335 244.729
C 188.397 244.467 187.254 244.359 187.218 245.677
C 186.233 244.305 185.313 242.773 183.726 241.967
C 183.113 241.655 182.457 241.806 181.849 241.58
C 181.34 240.37 180.668 239.208 180.086 238.031
C 180.634 237.774 182.663 238.666 183.382 238.845
C 186.651 239.66 189.859 240.745 193.135 241.554
C 202.217 243.796 211.244 246.264 220.295 248.623
C 224.444 249.704 229.554 250.198 233.407 252.064
C 234.374 253.51 235.066 255.845 235.528 257.523 Z"
opacity="1" fill="rgb(17,65,110)" fill-rule="evenodd" />
<path d="
M 181.849 241.58
C 182.457 241.806 183.113 241.655 183.726 241.967
C 185.313 242.773 186.233 244.305 187.218 245.677
C 187.877 247.948 189.177 250.074 190.116 252.241
C 192.407 257.528 194.646 262.832 196.971 268.105
C 201.826 279.111 206.521 290.196 211.427 301.179
C 213.75 306.38 215.98 311.617 218.27 316.831
C 219.065 318.641 219.402 321.625 220.932 322.945
C 223.695 323.763 226.318 322.934 229.096 323.229
C 229.773 323.301 229.887 323.867 230.487 323.962
C 233.51 324.441 236.93 323.956 239.987 323.933
C 245.828 323.89 251.677 324.018 257.516 323.861
C 254.403 324.7 250.204 323.99 246.977 323.99
C 240.757 323.99 234.534 324.111 228.315 324.099
C 225.815 324.095 223.344 323.709 220.838 323.882
C 219.907 323.96 219.001 324.081 218.076 323.917
C 216.637 321.766 215.772 319.06 214.685 316.712
C 212.237 311.426 209.966 306.07 207.657 300.724
C 199.133 280.997 189.809 261.539 181.849 241.58 Z"
opacity="1" fill="rgb(88,146,179)" fill-rule="evenodd" />
<path d="
M 235.528 257.523
C 236.108 258.675 236.404 259.975 236.92 261.16
C 236.993 261.327 237.377 262.616 237.633 261.97
C 237.549 263.568 238.859 264.815 240.282 265.243
C 240.799 265.399 241.386 266.274 241.768 265.892
C 242.359 265.3 242.669 263.967 242.998 263.202
C 244.092 260.653 244.606 257.392 246.102 255.083
C 248.377 253.28 252.517 252.828 255.236 251.768
C 263.226 248.657 271.324 245.692 279.483 243.051
C 282.293 242.141 285.098 241.136 287.944 240.351
C 288.715 240.139 289.938 239.288 290.693 239.377
C 288.561 246.477 285.032 253.406 282.383 260.351
C 276.819 274.94 271.422 289.6 265.76 304.148
C 263.828 309.113 262.108 314.167 260.122 319.112
C 259.547 320.546 259.217 323.753 257.516 323.861
C 251.677 324.018 245.828 323.89 239.987 323.933
C 236.93 323.956 233.51 324.441 230.487 323.962
C 229.887 323.867 229.773 323.301 229.096 323.229
C 226.318 322.934 223.695 323.763 220.932 322.945
C 219.402 321.625 219.065 318.641 218.27 316.831
C 215.98 311.617 213.75 306.38 211.427 301.179
C 206.521 290.196 201.826 279.111 196.971 268.105
C 194.646 262.832 192.407 257.528 190.116 252.241
C 189.177 250.074 187.877 247.948 187.218 245.677
C 187.254 244.359 188.397 244.467 189.335 244.729
C 191.676 245.381 194.055 245.894 196.397 246.543
C 205.943 249.189 215.698 251.288 225.169 254.189
C 227.531 254.913 230.003 255.273 232.348 256.058
C 232.83 256.219 235.324 257.881 235.528 257.523 Z"
opacity="1" fill="rgb(31,96,153)" fill-rule="evenodd" />
<path d="
M 197.008 380.634
C 198.321 380.657 200.488 380.145 201.655 380.713
C 203.746 389.991 208.465 398.675 210.516 407.953
C 211.175 407.668 211.231 406.667 211.451 406.059
C 212.041 404.432 212.531 402.771 213.124 401.142
C 215.546 394.491 217.101 387.237 219.965 380.791
C 220.96 380.377 223.269 380.228 224.148 380.819
C 226.795 387.69 228.621 394.926 231.024 401.895
C 231.578 403.503 232.195 405.095 232.68 406.724
C 232.799 407.123 232.918 408.374 233.311 408.39
C 234.393 407.213 234.417 404.31 234.933 402.785
C 236.76 397.387 238.514 391.95 240.449 386.589
C 241.051 384.921 241.451 381.906 242.771 380.698
C 244.006 380.668 245.292 380.56 246.509 380.827
C 245.927 382.264 245.348 383.744 244.84 385.216
C 242.262 391.937 240.287 398.93 238.026 405.761
C 237.425 407.579 236.818 409.377 236.297 411.222
C 236.109 411.887 235.942 413.141 235.422 413.593
C 234.036 413.845 232.55 413.849 231.144 413.826
C 230.188 412.125 229.803 410.033 229.155 408.197
C 227.418 403.275 226.004 398.244 224.217 393.341
C 223.764 392.099 223.314 390.798 222.99 389.519
C 222.771 388.657 222.856 387.518 222.12 386.931
C 219.66 392.432 217.983 398.379 215.977 404.064
C 214.918 407.067 214.365 410.831 212.762 413.584
C 211.456 413.904 209.716 413.817 208.387 413.632
C 205.985 406.55 203.69 399.401 201.09 392.392
C 199.647 388.503 198.717 384.427 197.008 380.634 Z"
opacity="1" fill="rgb(3,4,3)" fill-rule="evenodd" />
<path d="
M 212.867 235.956
C 213.057 235.749 213.28 236.111 213.516 236.166
C 213.904 236.257 214.493 235.824 214.809 236.037
C 215.221 236.315 214.86 237.381 215.269 237.436
C 217.021 236.235 217.616 233.9 218.377 232.023
C 220.114 227.741 221.74 223.261 223.084 218.841
C 223.514 217.426 223.939 215.939 224.543 214.589
C 224.651 214.347 225.214 213.68 225.088 213.391
C 224.936 213.045 224.169 212.987 223.885 212.759
C 223.224 212.224 223.015 209.693 222.228 210.889
C 222.869 208.819 223.856 206.873 224.4 204.765
C 224.998 202.442 225.284 199.417 226.497 197.334
C 226.56 198.343 228.174 198.209 228.602 197.437
C 229.722 195.414 230.222 192.812 230.994 190.629
C 233.043 184.844 234.999 179.044 236.925 173.238
C 238.288 173.341 240.02 173.525 241.342 173.859
C 242.238 174.086 243.454 174.634 244.288 173.932
C 244.188 174.468 244.143 174.984 243.904 175.478
C 242.459 174.876 239.755 175.382 238.284 175.735
C 236.209 180.654 234.766 185.765 232.947 190.767
C 231.621 194.41 230.192 198.23 229.315 202.01
C 228.715 204.596 228.866 206.41 230.546 208.566
C 230.714 208.781 231.446 209.936 231.672 209.902
C 231.315 211.869 230.107 213.657 229.543 215.588
C 228.006 220.856 226.629 226.146 224.982 231.383
C 224.383 233.286 223.706 235.146 223.231 237.089
C 223.066 237.768 222.96 238.953 222.472 239.457
C 219.308 239.677 215.14 239.869 212.043 239.221
C 212.175 238.078 212.577 237.059 212.867 235.956 Z"
opacity="1" fill="rgb(155,154,156)" fill-rule="evenodd" />
<path d="
M 222.228 210.889
C 223.015 209.693 223.224 212.224 223.885 212.759
C 224.169 212.987 224.936 213.045 225.088 213.391
C 225.214 213.68 224.651 214.347 224.543 214.589
C 223.939 215.939 223.514 217.426 223.084 218.841
C 221.74 223.261 220.114 227.741 218.377 232.023
C 217.616 233.9 217.021 236.235 215.269 237.436
C 214.86 237.381 215.221 236.315 214.809 236.037
C 214.493 235.824 213.904 236.257 213.516 236.166
C 213.28 236.111 213.057 235.749 212.867 235.956
C 215.456 227.418 219.252 219.278 222.228 210.889 Z"
opacity="1" fill="rgb(156,155,156)" fill-rule="evenodd" />
<path d="
M 244.288 173.932
C 243.454 174.634 242.238 174.086 241.342 173.859
C 240.02 173.525 238.288 173.341 236.925 173.238
C 234.999 179.044 233.043 184.844 230.994 190.629
C 230.222 192.812 229.722 195.414 228.602 197.437
C 228.174 198.209 226.56 198.343 226.497 197.334
C 227.377 193.245 229.118 189.162 230.541 185.234
C 232.214 180.615 233.583 175.864 235.366 171.289
C 238.067 171.086 242.408 170.572 244.977 171.407
C 244.808 172.278 244.522 173.081 244.288 173.932 Z"
opacity="1" fill="rgb(109,111,109)" fill-rule="evenodd" />
<path d="
M 243.904 175.478
C 241.703 183.851 238.552 192.142 235.464 200.22
C 234.258 203.377 232.529 206.65 231.672 209.902
C 231.446 209.936 230.714 208.781 230.546 208.566
C 228.866 206.41 228.715 204.596 229.315 202.01
C 230.192 198.23 231.621 194.41 232.947 190.767
C 234.766 185.765 236.209 180.654 238.284 175.735
C 239.755 175.382 242.459 174.876 243.904 175.478 Z"
opacity="1" fill="rgb(90,91,91)" fill-rule="evenodd" />
<path d="
M 290.693 239.377
C 289.938 239.288 288.715 240.139 287.944 240.351
C 285.098 241.136 282.293 242.141 279.483 243.051
C 271.324 245.692 263.226 248.657 255.236 251.768
C 252.517 252.828 248.377 253.28 246.102 255.083
C 244.606 257.392 244.092 260.653 242.998 263.202
C 242.669 263.967 242.359 265.3 241.768 265.892
C 241.386 266.274 240.799 265.399 240.282 265.243
C 238.859 264.815 237.549 263.568 237.633 261.97
C 237.842 259.262 239.654 254.85 241.102 252.53
C 242.502 251.366 244.672 250.893 246.371 250.28
C 249.632 249.102 252.897 247.916 256.14 246.69
C 268.223 242.125 280.782 238.578 292.753 233.778
C 292.871 234.254 292.41 234.959 292.231 235.395
C 291.694 236.703 291.118 238.031 290.693 239.377 Z"
opacity="1" fill="rgb(16,74,127)" fill-rule="evenodd" />
<path d="
M 247.036 234.822
C 247.878 234.799 248.676 235.405 249.497 235.467
C 249.933 235.5 250.279 234.931 250.525 234.661
C 251.7 233.369 252.083 231.487 252.629 229.871
C 253.016 228.556 253.438 227.28 253.785 225.951
C 254.547 225.087 255.747 224.494 256.854 224.188
C 258.673 223.645 260.283 222.594 262.02 221.857
C 265.507 220.377 269.249 219.051 272.569 217.224
C 275.003 215.886 278.061 213.81 280.953 214.467
C 282.095 216.017 285.593 213.024 286.887 212.33
C 287.489 211.827 287.014 210.605 286.608 210.089
C 285.812 209.889 285.896 210.873 285.907 211.406
C 283.337 213.054 284.808 207.857 284.888 206.476
C 285.07 203.36 285.159 199.996 285.861 196.951
C 286.333 194.901 287.267 192.987 287.8 190.951
C 289.111 189.625 290.769 190.206 292.251 191.063
C 293.038 191.518 294.174 192.139 294.999 191.405
C 297.627 192.319 300.074 193.659 302.541 194.869
C 302.431 197.096 305.078 196.124 305.832 197.469
C 304.642 202.519 302.09 207.493 300.332 212.384
C 299.501 214.697 298.756 218.207 297.119 220.056
C 292.345 222.139 287.112 223.512 282.163 225.139
C 275.536 227.319 269.064 229.944 262.471 232.221
C 258.623 233.551 254.824 235.042 250.976 236.362
C 249.333 236.925 247.791 238.003 246.039 238.154
C 246.194 236.971 246.641 235.936 247.036 234.822 Z"
opacity="1" fill="rgb(167,167,168)" fill-rule="evenodd" />
<path d="
M 249.651 226.422
C 250.3 226.045 250.792 226.059 251.516 226.202
C 252.538 226.8 251.375 228.201 251.807 229.166
C 251.931 229.443 252.307 230.009 252.629 229.871
C 252.083 231.487 251.7 233.369 250.525 234.661
C 250.279 234.931 249.933 235.5 249.497 235.467
C 248.676 235.405 247.878 234.799 247.036 234.822
C 247.878 232.044 249.137 229.287 249.651 226.422 Z"
opacity="1" fill="rgb(122,115,118)" fill-rule="evenodd" />
<path d="
M 280.247 212.12
C 278.862 212.59 277.611 213.456 276.25 214.005
C 271.465 215.937 266.672 217.88 262.192 220.47
C 260.227 221.607 258.01 222.132 256.854 224.188
C 255.747 224.494 254.547 225.087 253.785 225.951
C 253.96 225.159 253.589 224.389 253.669 223.568
C 253.828 221.93 254.238 220.091 254.568 218.473
C 256.109 217.208 258.238 216.729 260.075 216.035
C 264.757 214.268 269.861 213.247 274.128 210.49
C 275.397 209.671 277.221 208.684 278.263 207.617
C 278.599 207.274 279.069 206.268 278.694 205.837
C 276.213 206.963 275.374 207.695 272.648 206.859
C 271.79 205.505 268.776 204.992 267.323 204.386
C 262.703 202.46 257.984 200.737 253.548 198.402
C 252.899 197.579 253.27 195.117 253.126 194.004
C 253.399 193.3 253.553 189.715 252.555 189.501
C 251.877 189.355 250.484 189.728 249.917 189.991
C 249.872 188.876 249.782 187.772 249.771 186.655
C 251.949 186.862 254.141 188.388 256.18 189.186
C 261.72 191.353 267.173 193.759 272.645 196.086
C 274.757 196.984 278.932 198.199 280.315 200.067
C 280.189 202.738 280.436 205.354 280.556 208.013
C 280.616 209.354 280.826 210.87 280.247 212.12 Z"
opacity="1" fill="rgb(125,125,125)" fill-rule="evenodd" />
<path d="
M 249.917 189.991
C 250.484 189.728 251.877 189.355 252.555 189.501
C 253.553 189.715 253.399 193.3 253.126 194.004
C 252.067 194.321 250.869 194.164 249.971 194.987
C 249.942 193.319 249.903 191.665 249.917 189.991 Z"
opacity="1" fill="rgb(139,135,138)" fill-rule="evenodd" />
<path d="
M 249.971 194.987
C 250.869 194.164 252.067 194.321 253.126 194.004
C 253.27 195.117 252.899 197.579 253.548 198.402
C 252.398 197.895 250.767 197.776 249.766 197.112
C 249.794 196.395 249.902 195.699 249.971 194.987 Z"
opacity="1" fill="rgb(190,191,190)" fill-rule="evenodd" />
<path d="
M 260.375 211.65
C 260.75 212.077 261.009 213.214 260.636 213.609
C 258.243 215.389 254.686 216.145 251.841 216.928
C 252.139 219.39 252.847 222.38 252.236 224.838
C 251.692 225.42 250.922 225.34 251.516 226.202
C 250.792 226.059 250.3 226.045 249.651 226.422
C 250.001 222.945 249.761 219.179 249.579 215.688
C 250.026 214.986 251.491 214.808 252.26 214.519
C 254.91 213.52 257.662 212.447 260.375 211.65 Z"
opacity="1" fill="rgb(159,163,159)" fill-rule="evenodd" />
<path d="
M 260.375 211.65
C 264.552 210.448 268.609 208.438 272.648 206.859
C 275.374 207.695 276.213 206.963 278.694 205.837
C 279.069 206.268 278.599 207.274 278.263 207.617
C 277.221 208.684 275.397 209.671 274.128 210.49
C 269.861 213.247 264.757 214.268 260.075 216.035
C 258.238 216.729 256.109 217.208 254.568 218.473
C 254.238 220.091 253.828 221.93 253.669 223.568
C 253.589 224.389 253.96 225.159 253.785 225.951
C 253.438 227.28 253.016 228.556 252.629 229.871
C 252.307 230.009 251.931 229.443 251.807 229.166
C 251.375 228.201 252.538 226.8 251.516 226.202
C 250.922 225.34 251.692 225.42 252.236 224.838
C 252.847 222.38 252.139 219.39 251.841 216.928
C 254.686 216.145 258.243 215.389 260.636 213.609
C 261.009 213.214 260.75 212.077 260.375 211.65 Z"
opacity="1" fill="rgb(191,190,191)" fill-rule="evenodd" />
<path d="
M 255.232 380.76
C 256.543 380.816 257.86 380.682 259.171 380.817
C 259.197 388.372 259.135 395.936 259.164 403.495
C 259.173 405.829 259.2 408.163 259.213 410.497
C 259.219 411.442 259.021 412.761 259.287 413.653
C 257.982 413.518 256.582 413.65 255.263 413.631
C 255.155 406.427 255.133 399.213 255.107 392.003
C 255.094 388.431 254.521 384.253 255.232 380.76 Z"
opacity="1" fill="rgb(7,8,6)" fill-rule="evenodd" />
<path d="
M 280.247 212.12
C 280.228 213.157 280.361 213.641 280.953 214.467
C 278.061 213.81 275.003 215.886 272.569 217.224
C 269.249 219.051 265.507 220.377 262.02 221.857
C 260.283 222.594 258.673 223.645 256.854 224.188
C 258.01 222.132 260.227 221.607 262.192 220.47
C 266.672 217.88 271.465 215.937 276.25 214.005
C 277.611 213.456 278.862 212.59 280.247 212.12 Z"
opacity="0.996" fill="rgb(202,200,200)" fill-rule="evenodd" />
<path d="
M 301.492 136.474
C 301.354 138.237 301.972 139.322 303.695 140.042
C 303.809 140.163 302.038 140.28 301.786 140.298
C 300.201 140.412 298.589 140.358 297 140.366
C 292.629 140.39 287.912 139.861 283.589 140.515
C 280.746 145.448 279.201 151.491 277.265 156.833
C 274.585 164.223 271.15 171.773 269.563 179.49
C 273.299 182.259 278.46 183.734 282.724 185.535
C 286.888 187.295 290.7 189.918 294.999 191.405
C 294.174 192.139 293.038 191.518 292.251 191.063
C 290.769 190.206 289.111 189.625 287.8 190.951
C 287.88 190.723 288.089 190.279 287.96 190.02
C 287.755 189.607 286.752 189.741 286.405 189.724
C 285.016 189.655 283.475 189.43 282.149 189
C 278.11 187.689 274.207 185.968 270.305 184.297
C 268.528 183.536 266.285 183.065 264.771 181.862
C 264.801 180.498 265.676 178.832 266.079 177.507
C 267.126 174.064 268.252 170.656 269.436 167.26
C 273.04 156.924 277.053 146.719 280.328 136.276
C 287.278 135.936 294.547 136 301.492 136.474 Z"
opacity="1" fill="rgb(190,189,189)" fill-rule="evenodd" />
<path d="
M 267.991 67.577
C 312.494 67.729 357.006 67.69 401.51 67.635
C 411.341 67.623 421.173 67.579 431.005 67.558
C 438.374 67.543 445.583 67.272 451.431 72.55
C 462.15 82.223 456.142 97.973 457.756 110.331
C 448.722 109.854 439.546 110.322 430.498 110.319
C 407.838 110.314 385.138 110.702 362.483 110.222
C 361.687 109.172 360.435 108.514 359.711 107.534
C 359.499 107.246 359.54 106.849 359.265 106.592
C 358.481 105.861 357.276 105.822 356.443 105.002
C 355.508 104.081 354.381 102.347 352.853 102.492
C 352.284 102.546 352.016 103.017 351.378 103.031
C 350.229 103.055 349.044 102.491 347.916 102.912
C 345.662 103.753 344.718 105.84 342.126 104.55
C 336.563 101.781 330.988 98.338 325.596 95.668
C 312.878 89.371 300.317 82.906 287.859 76.102
C 284.942 74.508 284.42 79.544 281.852 78.971
C 281.166 78.817 280.836 77.914 280.232 77.604
C 279.667 77.314 279.053 77.612 278.476 77.345
C 276.745 76.545 275.464 74.885 273.721 74.104
C 273.093 73.822 272.463 74.174 271.827 74.02
C 270.853 73.783 270.43 72.217 269.72 71.598
C 269.325 71.253 268.785 71.321 268.467 70.853
C 267.805 69.88 268.532 68.275 267.991 67.577 Z"
opacity="1" fill="rgb(133,133,133)" fill-rule="evenodd" />
<path d="
M 301.492 136.474
C 304.924 136.473 308.428 136.729 311.855 136.541
C 312.364 137.125 312.476 138.114 312.773 138.832
C 313.657 140.97 314.271 143.226 315.115 145.382
C 316.352 148.54 317.421 151.761 318.636 154.927
C 319.187 156.363 320.36 158.013 320.555 159.547
C 320.662 160.388 319.814 161.632 319.513 162.396
C 318.589 164.742 317.702 167.103 316.773 169.447
C 314.3 175.69 311.842 181.943 309.431 188.21
C 308.399 190.894 306.964 193.629 306.199 196.388
C 305.904 195.75 303.241 195.054 302.541 194.869
C 300.074 193.659 297.627 192.319 294.999 191.405
C 290.7 189.918 286.888 187.295 282.724 185.535
C 278.46 183.734 273.299 182.259 269.563 179.49
C 271.15 171.773 274.585 164.223 277.265 156.833
C 279.201 151.491 280.746 145.448 283.589 140.515
C 287.912 139.861 292.629 140.39 297 140.366
C 298.589 140.358 300.201 140.412 301.786 140.298
C 302.038 140.28 303.809 140.163 303.695 140.042
C 301.972 139.322 301.354 138.237 301.492 136.474 Z"
opacity="1" fill="rgb(133,134,134)" fill-rule="evenodd" />
<path d="
M 272.327 380.799
C 273.629 380.815 274.943 380.781 276.248 380.767
C 275.897 390.543 276.602 400.361 276.275 410.131
C 278.026 410.48 280.201 410.048 282.005 410.035
C 286.125 410.005 290.244 410.051 294.361 410.074
C 294.253 411.045 294.758 412.825 294.23 413.626
C 292.027 413.966 289.526 413.57 287.291 413.578
C 282.266 413.597 277.227 413.689 272.204 413.606
C 271.996 405.747 272.156 397.865 272.127 390.003
C 272.12 387.991 272.105 385.977 272.061 383.965
C 272.039 382.953 271.825 381.663 272.327 380.799 Z"
opacity="1" fill="rgb(6,6,4)" fill-rule="evenodd" />
<path d="
M 286.887 212.33
C 286.74 211.774 286.408 211.622 285.907 211.406
C 285.896 210.873 285.812 209.889 286.608 210.089
C 287.014 210.605 287.489 211.827 286.887 212.33 Z"
opacity="0.996" fill="rgb(209,213,213)" fill-rule="evenodd" />
<path d="
M 302.541 194.869
C 303.241 195.054 305.904 195.75 306.199 196.388
C 306.096 196.768 305.999 197.113 305.832 197.469
C 305.078 196.124 302.431 197.096 302.541 194.869 Z"
opacity="1" fill="rgb(238,230,233)" fill-rule="evenodd" />
<path d="
M 352.942 247.481
C 351.704 246.572 351.053 244.93 350.285 243.643
C 348.102 239.989 346.618 236.128 344.898 232.272
C 339.709 220.646 335.331 208.721 330.423 196.972
C 329.472 194.696 328.691 192.388 327.897 190.057
C 327.535 188.992 327.5 187.924 326.909 186.944
C 325.836 189.433 325.167 192.082 324.199 194.614
C 320.477 204.35 316.714 214.081 312.986 223.818
C 311.484 227.74 310.122 231.711 308.65 235.644
C 307.986 237.417 306.693 240.162 306.549 241.851
C 305.559 242.225 304.979 243.307 304.366 244.072
C 303.728 242.61 302.59 241.13 302.385 239.535
C 302.879 237.3 304.165 234.982 304.993 232.83
C 306.673 228.464 308.251 224.061 309.974 219.712
C 315.572 205.583 320.915 191.322 326.253 177.095
C 327.914 178.801 328.492 181.812 329.273 184.021
C 330.697 188.051 332.207 192.05 333.773 196.026
C 338.59 208.251 342.896 220.657 347.57 232.932
C 349.338 237.573 352.083 242.586 352.942 247.481 Z"
opacity="1" fill="rgb(44,111,156)" fill-rule="evenodd" />
<path d="
M 302.272 380.802
C 303.527 380.846 304.873 380.607 306.108 380.865
C 306.431 390.554 306.387 400.408 306.215 410.098
C 312.431 409.894 318.64 410.094 324.856 410.064
C 324.777 411.117 325.182 412.655 324.687 413.604
C 322.354 413.989 319.667 413.582 317.298 413.587
C 312.261 413.597 307.203 413.72 302.168 413.617
C 301.537 406.176 302.105 398.47 302.105 391.002
C 302.105 387.968 301.299 383.649 302.272 380.802 Z"
opacity="1" fill="rgb(6,6,5)" fill-rule="evenodd" />
<path d="
M 304.366 244.072
C 304.979 243.307 305.559 242.225 306.549 241.851
C 307.937 243.711 308.717 246.253 309.577 248.398
C 311.419 252.993 313.419 257.523 315.24 262.128
C 320.44 275.282 326.334 288.169 331.473 301.347
C 333.456 306.433 335.7 311.414 337.534 316.56
C 338.086 318.109 338.773 321.756 340.004 322.796
C 341.966 323.424 344.092 323.019 346.103 323.195
C 346.813 323.258 346.868 323.885 347.49 323.985
C 349.27 324.273 351.316 323.997 353.12 323.992
C 356.087 323.983 359.062 324.152 362.028 323.987
C 363.014 323.932 363.431 323.222 364.508 323.171
C 368.204 322.996 371.828 323.772 375.514 323.86
C 372.143 324.621 367.932 324.015 364.473 324.032
C 355.481 324.078 346.323 323.536 337.353 324.147
C 335.979 323.339 335.339 319.915 334.781 318.468
C 332.829 313.405 330.845 308.333 328.783 303.315
C 320.673 283.571 312.201 263.926 304.366 244.072 Z"
opacity="1" fill="rgb(88,149,181)" fill-rule="evenodd" />
<path d="
M 352.942 247.481
C 353.505 248.166 353.609 249.119 353.949 249.926
C 355.098 252.652 355.874 255.53 357.043 258.243
C 357.258 258.743 358.052 261.685 358.579 261.342
C 358.45 262.969 359.114 262.776 360.391 263.496
C 360.401 263.584 360.46 264.575 360.671 264.485
C 361.06 264.319 361.229 263.371 361.363 263.029
C 361.971 261.486 362.591 259.949 363.168 258.395
C 364.779 254.055 366.787 249.788 368.233 245.399
C 369.555 241.611 371.365 237.89 372.941 234.196
C 377.885 222.606 382.98 210.9 387.356 199.085
C 387.621 198.361 387.953 197.667 388.246 196.955
C 394.828 179.909 402.89 163.428 409.376 146.342
C 409.688 145.587 410.013 144.839 410.328 144.085
C 410.815 142.839 411.363 141.468 412.198 140.419
C 415.409 139.782 419.019 140.15 422.286 140.122
C 426.413 140.087 430.413 139.625 434.49 139.082
C 435.078 138.848 435.294 138.256 435.832 137.954
C 436.217 137.739 436.727 138.039 437.081 137.756
C 437.345 137.545 436.692 137.312 436.879 136.984
C 437.14 136.528 438.063 135.838 438.501 135.545
C 445.212 135.486 452.298 134.645 458.97 135.487
C 451.657 150.195 445.825 165.738 439.144 180.745
C 424.618 213.369 410.194 246.064 396.152 278.898
C 391.264 290.327 386.478 301.849 381.27 313.134
C 380.074 315.724 378.826 318.328 377.774 320.98
C 377.223 322.369 377.139 323.732 375.514 323.86
C 371.828 323.772 368.204 322.996 364.508 323.171
C 363.431 323.222 363.014 323.932 362.028 323.987
C 359.062 324.152 356.087 323.983 353.12 323.992
C 351.316 323.997 349.27 324.273 347.49 323.985
C 346.868 323.885 346.813 323.258 346.103 323.195
C 344.092 323.019 341.966 323.424 340.004 322.796
C 338.773 321.756 338.086 318.109 337.534 316.56
C 335.7 311.414 333.456 306.433 331.473 301.347
C 326.334 288.169 320.44 275.282 315.24 262.128
C 313.419 257.523 311.419 252.993 309.577 248.398
C 308.717 246.253 307.937 243.711 306.549 241.851
C 306.693 240.162 307.986 237.417 308.65 235.644
C 310.122 231.711 311.484 227.74 312.986 223.818
C 316.714 214.081 320.477 204.35 324.199 194.614
C 325.167 192.082 325.836 189.433 326.909 186.944
C 327.5 187.924 327.535 188.992 327.897 190.057
C 328.691 192.388 329.472 194.696 330.423 196.972
C 335.331 208.721 339.709 220.646 344.898 232.272
C 346.618 236.128 348.102 239.989 350.285 243.643
C 351.053 244.93 351.704 246.572 352.942 247.481 Z"
opacity="1" fill="rgb(58,147,197)" fill-rule="evenodd" />
<path d="
M 332.368 381.579
C 332.343 381.329 332.318 381.08 332.293 380.83
C 333.679 380.8 335.142 380.631 336.519 380.83
C 336.093 385.108 336.551 389.548 336.617 393.841
C 336.72 400.478 336.604 407.118 336.655 413.753
C 335.329 413.647 333.989 413.889 332.673 413.689
C 332.421 403.022 332.052 392.247 332.368 381.579 Z"
opacity="1" fill="rgb(8,9,8)" fill-rule="evenodd" />
<path d="
M 344.298 413.691
C 346.062 410.888 347.221 407.427 348.581 404.398
C 350.549 400.015 352.766 395.752 354.694 391.35
C 356.2 387.911 357.589 384.111 359.486 380.887
C 360.597 380.734 362.398 380.476 363.4 381.02
C 367.356 388.702 370.96 396.74 374.463 404.65
C 375.437 406.85 376.549 408.993 377.58 411.167
C 377.952 411.952 378.749 412.943 378.894 413.775
C 377.35 413.683 375.801 413.805 374.261 413.63
C 373.267 411.08 372.038 407.163 370.218 405.13
C 364.375 405.232 358.313 404.68 352.502 405.308
C 351.038 407.834 350.364 411.177 348.628 413.482
C 347.276 413.844 345.688 413.715 344.298 413.691 Z
M 354.318 401.053
C 354.25 401.286 354.183 401.518 354.115 401.75
C 359.01 401.352 363.973 401.847 368.869 401.673
C 369.065 401.108 367.459 398.434 367.17 397.784
C 365.337 393.665 363.815 388.906 361.554 385.045
C 358.675 390.098 357.111 395.923 354.318 401.053 Z"
opacity="1" fill="rgb(4,3,3)" fill-rule="evenodd" />
<path d="
M 358.579 261.342
C 358.863 257.129 361.314 252.584 362.835 248.695
C 365.962 240.703 369.498 232.87 372.63 224.879
C 380.694 204.303 389.314 183.894 397.935 163.544
C 401.822 154.369 406.215 145.214 409.282 135.725
C 418.872 134.891 428.868 135.597 438.501 135.545
C 438.063 135.838 437.14 136.528 436.879 136.984
C 436.692 137.312 437.345 137.545 437.081 137.756
C 436.727 138.039 436.217 137.739 435.832 137.954
C 435.294 138.256 435.078 138.848 434.49 139.082
C 430.413 139.625 426.413 140.087 422.286 140.122
C 419.019 140.15 415.409 139.782 412.198 140.419
C 411.363 141.468 410.815 142.839 410.328 144.085
C 410.013 144.839 409.688 145.587 409.376 146.342
C 402.89 163.428 394.828 179.909 388.246 196.955
C 387.953 197.667 387.621 198.361 387.356 199.085
C 382.98 210.9 377.885 222.606 372.941 234.196
C 371.365 237.89 369.555 241.611 368.233 245.399
C 367.334 246.354 366.33 246.123 365.802 247.625
C 364.204 251.61 362.42 255.679 361.745 259.942
C 361.541 261.232 360.478 262.109 360.391 263.496
C 359.114 262.776 358.45 262.969 358.579 261.342 Z"
opacity="1" fill="rgb(133,211,237)" fill-rule="evenodd" />
<path d="
M 368.233 245.399
C 366.787 249.788 364.779 254.055 363.168 258.395
C 362.591 259.949 361.971 261.486 361.363 263.029
C 361.229 263.371 361.06 264.319 360.671 264.485
C 360.46 264.575 360.401 263.584 360.391 263.496
C 360.478 262.109 361.541 261.232 361.745 259.942
C 362.42 255.679 364.204 251.61 365.802 247.625
C 366.33 246.123 367.334 246.354 368.233 245.399 Z"
opacity="0.996" fill="rgb(91,164,217)" fill-rule="evenodd" />
<path d="
M 385.419 380.764
C 386.384 380.407 387.763 380.673 388.786 380.628
C 390.54 382.147 391.731 385.281 392.889 387.295
C 396.119 392.915 399.028 399.081 402.637 404.425
C 403.128 404.185 403.209 403.449 403.445 403.004
C 404.069 401.828 404.787 400.691 405.46 399.542
C 407.92 395.347 410.483 391.21 412.821 386.944
C 413.748 385.254 414.719 382.181 416.221 380.942
C 417.094 380.222 418.691 380.59 419.712 380.664
C 420.579 383.428 419.771 387.57 419.776 390.49
C 419.789 398.282 419.629 406.106 419.896 413.894
C 418.736 413.933 417.555 413.887 416.402 414.017
C 415.614 412.67 415.94 410.066 415.904 408.504
C 415.799 404.016 415.792 399.504 415.864 395.016
C 415.889 393.501 415.911 391.989 415.964 390.477
C 415.98 390.022 416.171 389.25 415.651 389.111
C 412.581 394.473 409.408 399.788 406.223 405.086
C 405.319 406.59 404.344 409.925 402.236 409.9
C 400.732 409.016 399.808 406.431 398.997 404.93
C 396.967 401.171 394.528 397.653 392.39 393.958
C 391.748 392.85 390.643 389.462 389.41 389.15
C 389.686 395.123 389.422 401.053 389.435 407.027
C 389.438 408.622 389.466 410.216 389.473 411.81
C 389.475 412.242 389.61 413.393 389.396 413.744
C 388.2 413.783 386.837 413.887 385.671 413.595
C 385.557 402.695 386.035 391.641 385.419 380.764 Z"
opacity="1" fill="rgb(2,3,2)" fill-rule="evenodd" />
<path d="
M 429.903 409.615
C 430.41 408.658 430.948 407.715 431.536 406.804
C 432.723 407.224 433.734 408.343 434.905 408.895
C 438.352 410.519 442.569 410.932 446.272 410.054
C 449.701 409.241 452.683 405.286 449.744 402.139
C 448.272 400.563 445.81 400.04 443.798 399.539
C 439.215 398.398 433.484 397.647 431.147 392.93
C 428.891 388.376 431.782 383.47 436.057 381.572
C 441.329 379.23 448.582 380.272 453.374 383.288
C 453.062 384.468 452.55 385.886 451.886 386.907
C 448.71 383.946 443.022 383.333 438.987 384.443
C 436.129 385.229 433.853 387.673 434.923 390.744
C 435.906 393.568 439.137 394.339 441.71 394.996
C 447.477 396.468 455.991 398.245 455.129 405.96
C 454.687 409.92 451.383 412.377 447.739 413.291
C 441.702 414.807 435.065 413.838 429.977 410.147
C 429.952 409.97 429.928 409.793 429.903 409.615 Z"
opacity="1" fill="rgb(5,4,4)" fill-rule="evenodd" />

</svg>